<svg width="24" height="24" viewBox="0 0 24 24" fill="none" xmlns="http://www.w3.org/2000/svg">
<mask id="path-1-inside-1" fill="white">
<path d="M18 0H6C2.68629 0 0 2.68629 0 6V18C0 21.3137 2.68629 24 6 24H18C21.3137 24 24 21.3137 24 18V6C24 2.68629 21.3137 0 18 0Z"/>
</mask>
<path d="M18 0H6C2.68629 0 0 2.68629 0 6V18C0 21.3137 2.68629 24 6 24H18C21.3137 24 24 21.3137 24 18V6C24 2.68629 21.3137 0 18 0Z" fill="#8FBCBB"/>
<path d="M6 1H18V-1H6V1ZM23 6V18H25V6H23ZM18 23H6V25H18V23ZM1 18V6H-1V18H1ZM6 23C3.23858 23 1 20.7614 1 18H-1C-1 21.866 2.13401 25 6 25V23ZM23 18C23 20.7614 20.7614 23 18 23V25C21.866 25 25 21.866 25 18H23ZM18 1C20.7614 1 23 3.23858 23 6H25C25 2.13401 21.866 -1 18 -1V1ZM6 -1C2.13401 -1 -1 2.13401 -1 6H1C1 3.23858 3.23858 1 6 1V-1Z" fill="#8FBCBB" mask="url(#path-1-inside-1)"/>
</svg>
